<svg xmlns="http://www.w3.org/2000/svg" data-name="Layer 1" viewBox="0 0 48 44" x="0px" y="0px"><path fill="#F15A22" d="M13,39H32.5A11.513,11.513,0,0,0,44,27.5a10.532,10.532,0,0,0-9.682-10.465A12,12,0,0,0,11,21c0,.076,0,.152,0,.228A9,9,0,0,0,13,39Zm5.219-12.625a1,1,0,0,1,1.406-.156L23,28.92V21a1,1,0,0,1,2,0v7.92l3.375-2.7a1,1,0,1,1,1.25,1.562l-5,4a.9.9,0,0,1-.149.082,1.119,1.119,0,0,1-.117.065.931.931,0,0,1-.718,0,1.119,1.119,0,0,1-.117-.065.9.9,0,0,1-.149-.082l-5-4A1,1,0,0,1,18.219,26.375Z"/></svg>